<?xml version="1.0" encoding="utf-8"?>
<!-- Generator: Adobe Illustrator 23.1.1, SVG Export Plug-In . SVG Version: 6.00 Build 0)  -->
<svg version="1.1" xmlns="http://www.w3.org/2000/svg" xmlns:xlink="http://www.w3.org/1999/xlink" x="0px" y="0px"
	 viewBox="0 0 182.6 132.6" style="enable-background:new 0 0 182.6 132.6;" xml:space="preserve">
<style type="text/css">
	.st0{fill:#79242F;}
	.st1{fill:#FFFFFF;}
	.st2{fill:none;}
	.st3{font-family:'Arial-BoldMT';}
	.st4{font-size:11px;}
</style>
<g id="Layer_1">
</g>
<g id="Isolation_Mode">
	<polygon class="st0" points="0.2,-0.1 0.2,132.5 182.7,132.5 182.7,-0.1 0.2,-0.1 	"/>
	<path class="st1" d="M30.1,79.9c-0.9,0.3-1.8,0.5-2.8,0.5c-1.2,0-2.2-0.2-3.1-0.6c-0.9-0.4-1.7-1-2.4-1.7c-0.6-0.7-1.1-1.5-1.5-2.4
		c-0.3-0.9-0.5-1.9-0.5-2.9c0-1.1,0.2-2.2,0.5-3.2c0.3-1,0.8-1.9,1.4-2.6c0.6-0.7,1.4-1.3,2.3-1.8c0.9-0.4,2-0.7,3.3-0.7
		c0.9,0,1.7,0.1,2.4,0.3c0.8,0.2,1.4,0.5,2,0.9c0.6,0.4,1.1,0.9,1.5,1.6c0.4,0.6,0.7,1.4,0.8,2.3H32c-0.1-0.6-0.3-1.1-0.6-1.5
		c-0.3-0.4-0.6-0.8-1-1c-0.4-0.3-0.9-0.5-1.4-0.6c-0.5-0.1-1.1-0.2-1.7-0.2c-1,0-1.8,0.2-2.5,0.6c-0.7,0.4-1.2,0.9-1.7,1.5
		c-0.4,0.6-0.8,1.3-1,2.1c-0.2,0.8-0.3,1.6-0.3,2.4c0,0.8,0.1,1.6,0.4,2.3c0.2,0.7,0.6,1.4,1,1.9c0.5,0.6,1,1,1.7,1.3
		c0.7,0.3,1.4,0.5,2.3,0.5c0.8,0,1.5-0.1,2.2-0.4c0.6-0.3,1.2-0.6,1.6-1.1c0.4-0.4,0.8-1,1-1.6c0.2-0.6,0.3-1.2,0.3-1.9h-5v-1.7h6.9
		v8H33l-0.6-1.9C31.8,79,31,79.5,30.1,79.9L30.1,79.9z M38.8,69.1v2.3h0c0.5-0.9,1-1.5,1.7-2c0.7-0.4,1.5-0.6,2.5-0.6v1.9
		c-0.7,0-1.4,0.1-1.9,0.3c-0.5,0.2-1,0.5-1.3,0.9c-0.3,0.4-0.6,0.8-0.7,1.4c-0.1,0.5-0.2,1.2-0.2,1.9v4.9H37v-11H38.8L38.8,69.1z
		 M53.1,80.3c-0.5,0-0.9-0.1-1.2-0.4c-0.3-0.3-0.4-0.7-0.4-1.3c-0.5,0.6-1.1,1-1.8,1.3c-0.7,0.3-1.4,0.4-2.2,0.4
		c-0.5,0-1-0.1-1.5-0.2c-0.5-0.1-0.9-0.3-1.2-0.5c-0.3-0.2-0.6-0.6-0.8-1c-0.2-0.4-0.3-0.9-0.3-1.4c0-0.6,0.1-1.1,0.3-1.5
		c0.2-0.4,0.5-0.7,0.9-1c0.4-0.2,0.8-0.4,1.2-0.6c0.5-0.1,0.9-0.2,1.4-0.3c0.5-0.1,1-0.2,1.5-0.2c0.5,0,0.9-0.1,1.2-0.2
		c0.4-0.1,0.6-0.2,0.8-0.4c0.2-0.2,0.3-0.4,0.3-0.8c0-0.4-0.1-0.7-0.2-1c-0.2-0.2-0.4-0.4-0.6-0.6c-0.2-0.1-0.5-0.2-0.8-0.3
		c-0.3,0-0.6-0.1-0.9-0.1c-0.8,0-1.5,0.1-2,0.4c-0.5,0.3-0.8,0.8-0.9,1.6h-1.9c0-0.7,0.2-1.3,0.4-1.7c0.3-0.5,0.6-0.8,1.1-1.1
		c0.4-0.3,0.9-0.5,1.5-0.6c0.6-0.1,1.2-0.2,1.8-0.2c0.5,0,1,0,1.5,0.1c0.5,0.1,1,0.2,1.4,0.4c0.4,0.2,0.7,0.5,1,0.9
		c0.2,0.4,0.4,0.9,0.4,1.5v5.6c0,0.4,0,0.7,0.1,0.9c0.1,0.2,0.2,0.3,0.5,0.3c0.2,0,0.4,0,0.6-0.1V80C54.1,80.2,53.7,80.3,53.1,80.3
		L53.1,80.3L53.1,80.3z M50.5,74.8c-0.4,0.1-0.8,0.1-1.2,0.2c-0.4,0-0.8,0.1-1.3,0.2c-0.4,0.1-0.8,0.2-1.1,0.3
		c-0.3,0.1-0.6,0.3-0.8,0.6c-0.2,0.3-0.3,0.6-0.3,1.1c0,0.3,0.1,0.5,0.2,0.8c0.1,0.2,0.3,0.4,0.5,0.5s0.4,0.2,0.7,0.3
		c0.3,0.1,0.5,0.1,0.8,0.1c0.6,0,1.1-0.1,1.6-0.2c0.4-0.2,0.8-0.4,1.1-0.6c0.3-0.2,0.5-0.5,0.6-0.8c0.1-0.3,0.2-0.6,0.2-0.8v-1.8
		C51.2,74.6,50.9,74.7,50.5,74.8L50.5,74.8z M58,69.1v1.7h0c0.8-1.3,2-2,3.7-2c0.7,0,1.4,0.1,1.9,0.3c0.5,0.2,0.9,0.5,1.2,0.8
		c0.3,0.4,0.5,0.8,0.6,1.3c0.1,0.5,0.2,1,0.2,1.6v7.2h-1.9v-7.4c0-0.7-0.2-1.2-0.6-1.6c-0.4-0.4-1-0.6-1.7-0.6
		c-0.6,0-1.1,0.1-1.5,0.3c-0.4,0.2-0.8,0.4-1,0.7c-0.3,0.3-0.5,0.7-0.6,1.1c-0.1,0.4-0.2,0.9-0.2,1.4v6.2h-1.9v-11H58L58,69.1z
		 M73.3,69.1v1.6H71v6.8c0,0.2,0,0.4,0.1,0.5c0,0.1,0.1,0.2,0.2,0.3c0.1,0.1,0.2,0.1,0.4,0.1c0.2,0,0.4,0,0.7,0h0.9v1.6h-1.4
		c-0.5,0-0.9,0-1.2-0.1c-0.3-0.1-0.6-0.2-0.8-0.4c-0.2-0.2-0.4-0.4-0.5-0.7c-0.1-0.3-0.2-0.7-0.2-1.2v-7h-1.9v-1.6h1.9v-3.3H71v3.3
		H73.3L73.3,69.1z M88,72.2c1.2,0,2.1-0.2,2.6-0.7c0.6-0.5,0.8-1.2,0.8-2.1c0-0.9-0.3-1.6-0.8-2.1c-0.6-0.5-1.4-0.7-2.6-0.7h-4.1
		v5.6H88L88,72.2z M88.7,64.9c1.6,0,2.8,0.4,3.6,1.2c0.8,0.8,1.2,1.9,1.2,3.3c0,1.4-0.4,2.5-1.2,3.3c-0.8,0.8-2,1.2-3.6,1.2h-4.8
		v6.2h-2.1V64.9H88.7L88.7,64.9z M97.4,69.1v2.3h0c0.5-0.9,1-1.5,1.7-2c0.7-0.4,1.5-0.6,2.5-0.6v1.9c-0.7,0-1.4,0.1-1.9,0.3
		c-0.5,0.2-1,0.5-1.3,0.9c-0.3,0.4-0.6,0.8-0.7,1.4c-0.1,0.5-0.2,1.2-0.2,1.9v4.9h-1.9v-11H97.4L97.4,69.1z M104.3,76.4
		c0.2,0.5,0.4,0.9,0.8,1.3c0.3,0.3,0.7,0.6,1.1,0.8c0.4,0.2,0.9,0.3,1.4,0.3s0.9-0.1,1.4-0.3c0.4-0.2,0.8-0.4,1.1-0.8
		c0.3-0.3,0.6-0.8,0.8-1.3c0.2-0.5,0.3-1.1,0.3-1.8c0-0.7-0.1-1.3-0.3-1.8c-0.2-0.5-0.4-1-0.8-1.3c-0.3-0.4-0.7-0.6-1.1-0.8
		c-0.4-0.2-0.9-0.3-1.4-0.3s-0.9,0.1-1.4,0.3c-0.4,0.2-0.8,0.5-1.1,0.8c-0.3,0.4-0.6,0.8-0.8,1.3c-0.2,0.5-0.3,1.1-0.3,1.8
		C104,75.3,104.1,75.9,104.3,76.4L104.3,76.4z M102.4,72.3c0.2-0.7,0.6-1.3,1.1-1.8c0.5-0.5,1-0.9,1.7-1.2c0.7-0.3,1.5-0.4,2.4-0.4
		c0.9,0,1.7,0.1,2.4,0.4c0.7,0.3,1.3,0.7,1.7,1.2c0.5,0.5,0.8,1.1,1.1,1.8c0.2,0.7,0.4,1.5,0.4,2.3s-0.1,1.6-0.4,2.2
		c-0.2,0.7-0.6,1.3-1.1,1.8c-0.5,0.5-1,0.9-1.7,1.2c-0.7,0.3-1.5,0.4-2.4,0.4c-0.9,0-1.7-0.1-2.4-0.4c-0.7-0.3-1.3-0.7-1.7-1.2
		c-0.5-0.5-0.8-1.1-1.1-1.8c-0.2-0.7-0.4-1.4-0.4-2.2S102.2,73,102.4,72.3L102.4,72.3z M123.8,83.2c-0.9,0.9-2.2,1.3-4,1.3
		c-0.5,0-1.1-0.1-1.6-0.2c-0.6-0.1-1-0.3-1.5-0.6c-0.4-0.3-0.8-0.6-1.1-1c-0.3-0.4-0.5-0.9-0.5-1.5h1.9c0,0.3,0.1,0.6,0.3,0.8
		c0.2,0.2,0.4,0.4,0.7,0.6c0.3,0.1,0.6,0.2,0.9,0.3c0.3,0.1,0.7,0.1,1,0.1c0.6,0,1.1-0.1,1.6-0.3c0.4-0.2,0.8-0.5,1.1-0.8
		c0.3-0.4,0.5-0.8,0.6-1.3c0.1-0.5,0.2-1.1,0.2-1.7v-0.7h0c-0.3,0.7-0.8,1.2-1.5,1.5s-1.3,0.5-2.1,0.5c-0.9,0-1.6-0.1-2.2-0.4
		c-0.6-0.3-1.2-0.7-1.6-1.2c-0.4-0.5-0.7-1.1-1-1.8c-0.2-0.7-0.3-1.4-0.3-2.1c0-0.7,0.1-1.3,0.3-2c0.2-0.7,0.5-1.3,0.9-1.9
		c0.4-0.6,1-1,1.6-1.4c0.7-0.4,1.5-0.5,2.5-0.5c0.7,0,1.4,0.2,2,0.5c0.6,0.3,1.1,0.8,1.4,1.4h0v-1.6h1.8v10
		C125.1,80.9,124.7,82.3,123.8,83.2L123.8,83.2z M121.5,78.2c0.4-0.2,0.8-0.6,1-1c0.3-0.4,0.5-0.9,0.6-1.4c0.1-0.5,0.2-1,0.2-1.5
		c0-0.5-0.1-1-0.2-1.4c-0.1-0.5-0.3-0.9-0.6-1.3c-0.3-0.4-0.6-0.7-1-0.9c-0.4-0.2-0.9-0.3-1.5-0.3c-0.6,0-1.1,0.1-1.5,0.3
		c-0.4,0.2-0.8,0.5-1,0.9c-0.3,0.4-0.5,0.8-0.6,1.3c-0.1,0.5-0.2,1-0.2,1.5c0,0.5,0.1,1,0.2,1.5c0.1,0.5,0.3,0.9,0.5,1.3
		c0.2,0.4,0.6,0.7,1,1c0.4,0.2,0.9,0.4,1.5,0.4S121,78.5,121.5,78.2L121.5,78.2z M129.6,69.1v2.3h0c0.5-0.9,1-1.5,1.7-2
		c0.7-0.4,1.5-0.6,2.5-0.6v1.9c-0.7,0-1.4,0.1-1.9,0.3c-0.5,0.2-1,0.5-1.3,0.9c-0.3,0.4-0.6,0.8-0.7,1.4c-0.1,0.5-0.2,1.2-0.2,1.9
		v4.9h-1.9v-11H129.6L129.6,69.1z M144,80.3c-0.5,0-0.9-0.1-1.2-0.4c-0.3-0.3-0.4-0.7-0.4-1.3c-0.5,0.6-1.1,1-1.8,1.3
		c-0.7,0.3-1.4,0.4-2.2,0.4c-0.5,0-1-0.1-1.5-0.2c-0.5-0.1-0.9-0.3-1.2-0.5c-0.3-0.2-0.6-0.6-0.8-1c-0.2-0.4-0.3-0.9-0.3-1.4
		c0-0.6,0.1-1.1,0.3-1.5c0.2-0.4,0.5-0.7,0.9-1c0.4-0.2,0.8-0.4,1.2-0.6c0.5-0.1,0.9-0.2,1.4-0.3c0.5-0.1,1-0.2,1.5-0.2
		c0.5,0,0.9-0.1,1.2-0.2c0.4-0.1,0.6-0.2,0.8-0.4c0.2-0.2,0.3-0.4,0.3-0.8c0-0.4-0.1-0.7-0.2-1c-0.2-0.2-0.4-0.4-0.6-0.6
		c-0.2-0.1-0.5-0.2-0.8-0.3c-0.3,0-0.6-0.1-0.9-0.1c-0.8,0-1.5,0.1-2,0.4c-0.5,0.3-0.8,0.8-0.9,1.6h-1.9c0-0.7,0.2-1.3,0.4-1.7
		c0.3-0.5,0.6-0.8,1.1-1.1c0.4-0.3,0.9-0.5,1.5-0.6c0.6-0.1,1.2-0.2,1.8-0.2c0.5,0,1,0,1.5,0.1c0.5,0.1,1,0.2,1.4,0.4
		c0.4,0.2,0.7,0.5,1,0.9c0.2,0.4,0.4,0.9,0.4,1.5v5.6c0,0.4,0,0.7,0.1,0.9c0.1,0.2,0.2,0.3,0.5,0.3c0.2,0,0.4,0,0.6-0.1V80
		C145,80.2,144.6,80.3,144,80.3L144,80.3L144,80.3z M141.4,74.8c-0.4,0.1-0.8,0.1-1.2,0.2c-0.4,0-0.8,0.1-1.3,0.2
		c-0.4,0.1-0.8,0.2-1.1,0.3c-0.3,0.1-0.6,0.3-0.8,0.6c-0.2,0.3-0.3,0.6-0.3,1.1c0,0.3,0.1,0.5,0.2,0.8c0.1,0.2,0.3,0.4,0.5,0.5
		c0.2,0.1,0.4,0.2,0.7,0.3c0.3,0.1,0.5,0.1,0.8,0.1c0.6,0,1.1-0.1,1.6-0.2c0.4-0.2,0.8-0.4,1.1-0.6c0.3-0.2,0.5-0.5,0.6-0.8
		c0.1-0.3,0.2-0.6,0.2-0.8v-1.8C142.1,74.6,141.8,74.7,141.4,74.8L141.4,74.8z M148.8,69.1v1.6h0c0.9-1.2,2.1-1.9,3.7-1.9
		c0.7,0,1.3,0.1,1.9,0.4c0.6,0.3,1,0.8,1.2,1.4c0.4-0.6,0.9-1.1,1.5-1.4c0.6-0.3,1.3-0.5,2.1-0.5c0.6,0,1.1,0.1,1.6,0.2
		c0.5,0.1,0.9,0.3,1.2,0.6c0.3,0.3,0.6,0.6,0.8,1c0.2,0.4,0.3,0.9,0.3,1.5v8h-1.9v-7.2c0-0.3,0-0.7-0.1-1c-0.1-0.3-0.2-0.6-0.3-0.8
		c-0.2-0.2-0.4-0.4-0.7-0.5c-0.3-0.1-0.7-0.2-1.1-0.2c-0.9,0-1.6,0.3-2.2,0.8c-0.5,0.5-0.8,1.2-0.8,2v6.8h-1.9v-7.2
		c0-0.4,0-0.7-0.1-1c-0.1-0.3-0.2-0.6-0.3-0.8c-0.2-0.2-0.4-0.4-0.6-0.5c-0.3-0.1-0.6-0.2-1-0.2c-0.5,0-1,0.1-1.4,0.3
		c-0.4,0.2-0.7,0.5-0.9,0.8c-0.2,0.3-0.4,0.6-0.5,0.9c-0.1,0.3-0.2,0.6-0.2,0.8v6.8h-1.9v-11H148.8L148.8,69.1z"/>
	<path class="st1" d="M29.1,45.4c0.5,0.9,1.3,1.7,2.2,2.3c0.9,0.6,2,1,3.2,1.3c1.2,0.3,2.5,0.4,3.8,0.4c0.9,0,1.8-0.1,2.9-0.2
		c1-0.1,2-0.4,2.9-0.8c0.9-0.4,1.6-0.9,2.2-1.6c0.6-0.7,0.9-1.5,0.9-2.5c0-1.1-0.4-2-1.2-2.7c-0.8-0.7-1.8-1.2-3.1-1.7
		c-1.3-0.5-2.7-0.8-4.3-1.2c-1.6-0.3-3.2-0.7-4.9-1.1c-1.7-0.4-3.3-0.8-4.9-1.4c-1.6-0.5-3-1.3-4.3-2.1c-1.3-0.9-2.3-2-3.1-3.3
		c-0.8-1.3-1.2-2.9-1.2-4.7c0-2.1,0.5-3.9,1.5-5.4c1-1.5,2.3-2.8,3.9-3.8c1.6-1,3.4-1.8,5.4-2.3c2-0.5,4.1-0.7,6.1-0.7
		c2.4,0,4.6,0.2,6.8,0.7c2.2,0.5,4.1,1.2,5.8,2.3c1.7,1.1,3,2.4,4,4c1,1.6,1.5,3.6,1.5,6h-9.6c-0.1-1.2-0.4-2.2-0.9-3
		c-0.5-0.8-1.1-1.4-1.9-1.9c-0.8-0.5-1.7-0.8-2.8-1c-1-0.2-2.2-0.3-3.4-0.3c-0.8,0-1.6,0.1-2.4,0.2c-0.8,0.2-1.5,0.4-2.2,0.8
		c-0.7,0.4-1.2,0.8-1.6,1.4c-0.4,0.6-0.6,1.3-0.6,2.2c0,0.8,0.2,1.4,0.5,1.9c0.3,0.5,1,0.9,2,1.4c1,0.4,2.4,0.8,4.1,1.2
		c1.8,0.4,4,0.9,6.9,1.6c0.8,0.2,2,0.4,3.5,0.8c1.5,0.4,3,1,4.5,1.9c1.5,0.9,2.8,2,3.8,3.5c1.1,1.5,1.6,3.3,1.6,5.6
		c0,1.8-0.4,3.6-1.2,5.1c-0.8,1.6-2,3-3.6,4.1c-1.6,1.2-3.5,2-5.9,2.7c-2.3,0.6-5.1,1-8.1,1c-2.5,0-4.9-0.3-7.3-0.8
		c-2.3-0.5-4.4-1.4-6.2-2.6c-1.8-1.2-3.2-2.7-4.3-4.5c-1.1-1.8-1.6-4-1.5-6.5h9.6C28.3,43.3,28.5,44.4,29.1,45.4L29.1,45.4z
		 M72.6,14.9v15.5h18.3V14.9h9.9v40.4h-9.9V37.9H72.6v17.4h-9.9V14.9H72.6L72.6,14.9z M119.5,14.9v40.4h-9.9V14.9H119.5L119.5,14.9z
		 M145.9,33.9c1.1,0,2.2-0.1,3.3-0.2c1.1-0.2,2-0.4,2.8-0.9c0.8-0.4,1.4-1,1.9-1.8c0.5-0.8,0.7-1.8,0.7-3.1c0-1.3-0.2-2.3-0.7-3.1
		c-0.5-0.8-1.1-1.4-1.9-1.8c-0.8-0.4-1.7-0.7-2.8-0.9c-1.1-0.2-2.2-0.2-3.3-0.2h-7.7v12.1H145.9L145.9,33.9z M148.7,14.9
		c2.8,0,5.2,0.4,7.2,1.1c2,0.7,3.6,1.7,4.8,2.9c1.2,1.2,2.2,2.6,2.7,4.1c0.6,1.5,0.9,3.2,0.9,4.8c0,1.6-0.3,3.2-0.9,4.8
		c-0.6,1.6-1.5,3-2.7,4.2c-1.2,1.2-2.9,2.2-4.8,2.9c-2,0.7-4.4,1.1-7.2,1.1h-10.5v14.5h-9.9V14.9H148.7L148.7,14.9z"/>
	<rect x="13.3" y="99" class="st2" width="156.4" height="27"/>
	<text transform="matrix(1 0 0 1 15.0734 106.8834)"><tspan x="0" y="0" class="st1 st3 st4">Funded by the Department of </tspan><tspan x="27.8" y="13.2" class="st1 st3 st4">Labor &amp; Industries</tspan></text>
</g>
</svg>
